<svg width="14" height="14" viewBox="0 0 14 14" fill="none" xmlns="http://www.w3.org/2000/svg">
<path d="M13.6545 0.150827C13.2856 0.0428744 4.26254 -0.855475 1.0937 3.42567C-0.309741 5.32223 1.02337 11.1525 1.02337 11.1525C1.02337 11.1525 0.379129 12.6166 0.134048 13.4091C0.059536 13.6499 0.194313 13.9052 0.434856 13.9795C0.479699 13.9934 0.525117 14 0.569961 14C0.764429 14 0.94498 13.8744 1.00525 13.6787C3.42046 5.87028 11.2694 2.09267 13.6763 1.13835C13.9106 1.0454 14.2236 0.317405 13.6545 0.150827Z" fill="#84829A"/>
<path d="M2.47192 12.1298C3.77832 12.6778 5.08453 12.9587 6.29922 12.9587C7.39103 12.9587 8.40923 12.7342 9.28663 12.279C11.0525 11.363 12.1315 9.61081 12.4071 7.21132C12.6878 4.7659 13.0373 3.23416 13.3289 2.29712C10.7336 3.49428 5.16878 6.5974 2.47192 12.1298Z" fill="#84829A"/>
</svg>
