<svg width="153" height="166" viewBox="0 0 153 166" fill="none" xmlns="http://www.w3.org/2000/svg">
<path d="M7.19727 12.6105H11.5586V14.4904H7.19727V19.4318H5.19922V14.4904H0.837891V12.6105H5.19922V8.0451H7.19727V12.6105Z" fill="#FF7152"/>
<path d="M7.19727 47.6105H11.5586V49.4904H7.19727V54.4318H5.19922V49.4904H0.837891V47.6105H5.19922V43.0451H7.19727V47.6105Z" fill="#E5E5E5"/>
<path d="M7.19727 82.6105H11.5586V84.4904H7.19727V89.4318H5.19922V84.4904H0.837891V82.6105H5.19922V78.0451H7.19727V82.6105Z" fill="#E5E5E5"/>
<path d="M42.1973 12.6105H46.5586V14.4904H42.1973V19.4318H40.1992V14.4904H35.8379V12.6105H40.1992V8.0451H42.1973V12.6105Z" fill="#E5E5E5"/>
<path d="M42.1973 47.6105H46.5586V49.4904H42.1973V54.4318H40.1992V49.4904H35.8379V47.6105H40.1992V43.0451H42.1973V47.6105Z" fill="#E5E5E5"/>
<path d="M42.1973 82.6105H46.5586V84.4904H42.1973V89.4318H40.1992V84.4904H35.8379V82.6105H40.1992V78.0451H42.1973V82.6105Z" fill="#E5E5E5"/>
<path d="M42.1973 117.611H46.5586V119.49H42.1973V124.432H40.1992V119.49H35.8379V117.611H40.1992V113.045H42.1973V117.611Z" fill="#E5E5E5"/>
<path d="M77.1973 12.6105H81.5586V14.4904H77.1973V19.4318H75.1992V14.4904H70.8379V12.6105H75.1992V8.0451H77.1973V12.6105Z" fill="#E5E5E5"/>
<path d="M77.1973 47.6105H81.5586V49.4904H77.1973V54.4318H75.1992V49.4904H70.8379V47.6105H75.1992V43.0451H77.1973V47.6105Z" fill="#E5E5E5"/>
<path d="M77.1973 82.6105H81.5586V84.4904H77.1973V89.4318H75.1992V84.4904H70.8379V82.6105H75.1992V78.0451H77.1973V82.6105Z" fill="#6246E5"/>
<path d="M77.1973 117.611H81.5586V119.49H77.1973V124.432H75.1992V119.49H70.8379V117.611H75.1992V113.045H77.1973V117.611Z" fill="#E5E5E5"/>
<path d="M77.1973 152.611H81.5586V154.49H77.1973V159.432H75.1992V154.49H70.8379V152.611H75.1992V148.045H77.1973V152.611Z" fill="#E5E5E5"/>
<path d="M112.197 12.6105H116.559V14.4904H112.197V19.4318H110.199V14.4904H105.838V12.6105H110.199V8.0451H112.197V12.6105Z" fill="#E5E5E5"/>
<path d="M112.197 47.6105H116.559V49.4904H112.197V54.4318H110.199V49.4904H105.838V47.6105H110.199V43.0451H112.197V47.6105Z" fill="#E5E5E5"/>
<path d="M112.197 82.6105H116.559V84.4904H112.197V89.4318H110.199V84.4904H105.838V82.6105H110.199V78.0451H112.197V82.6105Z" fill="#E5E5E5"/>
<path d="M112.197 117.611H116.559V119.49H112.197V124.432H110.199V119.49H105.838V117.611H110.199V113.045H112.197V117.611Z" fill="#E5E5E5"/>
<path d="M112.197 152.611H116.559V154.49H112.197V159.432H110.199V154.49H105.838V152.611H110.199V148.045H112.197V152.611Z" fill="#E5E5E5"/>
<path d="M147.197 12.6105H151.559V14.4904H147.197V19.4318H145.199V14.4904H140.838V12.6105H145.199V8.0451H147.197V12.6105Z" fill="#E5E5E5"/>
<path d="M147.197 47.6105H151.559V49.4904H147.197V54.4318H145.199V49.4904H140.838V47.6105H145.199V43.0451H147.197V47.6105Z" fill="#E5E5E5"/>
<path d="M147.197 82.6105H151.559V84.4904H147.197V89.4318H145.199V84.4904H140.838V82.6105H145.199V78.0451H147.197V82.6105Z" fill="#E5E5E5"/>
<path d="M147.197 117.611H151.559V119.49H147.197V124.432H145.199V119.49H140.838V117.611H145.199V113.045H147.197V117.611Z" fill="#E5E5E5"/>
<path d="M147.197 152.611H151.559V154.49H147.197V159.432H145.199V154.49H140.838V152.611H145.199V148.045H147.197V152.611Z" fill="#E5E5E5"/>
</svg>
